<?xml version="1.0" encoding="UTF-8"?>
<svg version="1.1" xmlns="http://www.w3.org/2000/svg" width="1896" height="661">
<path d="M0 0 C18.15 0 36.3 0 55 0 C55 57.75 55 115.5 55 175 C61.435 173.02 61.435 173.02 68 171 C70.54034345 170.36307047 73.09021846 169.76146358 75.65234375 169.21875 C76.63411842 169.01024666 76.63411842 169.01024666 77.63572693 168.79753113 C79.73459896 168.35616067 81.83554031 167.92640951 83.9375 167.5 C84.6709967 167.35003571 85.40449341 167.20007141 86.16021729 167.04556274 C164.98661071 151.03166255 248.19783175 155.43557518 324 183 C324 122.61 324 62.22 324 0 C342.15 0 360.3 0 379 0 C379 66.66 379 133.32 379 202 C386.92 203.98 386.92 203.98 395 206 C402.18359375 207.89453125 402.18359375 207.89453125 405.75073242 208.84082031 C439.95488505 217.85562247 473.68921305 223.78992846 509 227 C509 152.09 509 77.18 509 0 C611.3 0 713.6 0 819 0 C819 16.5 819 33 819 50 C734.85 50 650.7 50 564 50 C564.33 107.09 564.66 164.18 565 223 C588.67831155 218.8441092 588.67831155 218.8441092 612.0625 213.5625 C612.88230347 213.35612915 613.70210693 213.1497583 614.54675293 212.93713379 C653.91171605 202.96357931 692.81302606 189.36938291 729.59423828 172.1105957 C730.52220215 171.68351318 731.45016602 171.25643066 732.40625 170.81640625 C733.20353516 170.43943604 734.00082031 170.06246582 734.82226562 169.67407227 C737.47515059 168.85292704 738.51290095 168.7324754 741 170 C742.70410156 172.52172852 742.70410156 172.52172852 744.390625 175.87890625 C744.8498233 176.77845787 744.8498233 176.77845787 745.31829834 177.69618225 C746.30909315 179.6451002 747.27987889 181.60322059 748.25 183.5625 C748.92078739 184.89491659 749.59266354 186.22678561 750.265625 187.55810547 C751.58713425 190.17703521 752.90096826 192.79960012 754.20898438 195.42529297 C755.71185896 198.42489625 757.24055091 201.40684056 758.796875 204.37890625 C759.1794043 205.11616943 759.56193359 205.85343262 759.95605469 206.61303711 C760.63302818 207.91774678 761.31564207 209.21955125 762.00488281 210.51782227 C762.875 212.2265625 762.875 212.2265625 764 215 C763 218 763 218 761.11523438 219.14404297 C760.28314453 219.50643066 759.45105469 219.86881836 758.59375 220.2421875 C757.63968262 220.66177734 756.68561523 221.08136719 755.70263672 221.51367188 C754.6457666 221.96291016 753.58889648 222.41214844 752.5 222.875 C751.39285645 223.35259766 750.28571289 223.83019531 749.14501953 224.32226562 C696.32258358 246.88662437 641.56767567 265.68693758 584.875 275.625 C583.79587341 275.81490005 583.79587341 275.81490005 582.69494629 276.00863647 C576.39927488 277.10294651 570.42409363 278 564 278 C564 334.43 564 390.86 564 449 C545.85 449 527.7 449 509 449 C509 393.56 509 338.12 509 281 C501.08 281 493.16 281 485 281 C479.91233798 280.69710434 474.92982463 280.35252289 469.875 279.8125 C468.58279541 279.6794043 467.29059082 279.54630859 465.95922852 279.40917969 C436.70872097 276.29284151 408.25292394 270.07226398 380 262 C379.67 323.71 379.34 385.42 379 449 C360.52 449 342.04 449 323 449 C323 380.03 323 311.06 323 240 C321.35 239.67 319.7 239.34 318 239 C315.67729298 238.27534477 313.36436404 237.51905074 311.05859375 236.7421875 C309.67112919 236.27941828 308.28342331 235.81737207 306.89550781 235.35595703 C306.16932251 235.11411682 305.44313721 234.87227661 304.69494629 234.62310791 C272.57074434 223.9772867 239.8361004 216.44563028 206 214 C205.26442871 213.94360352 204.52885742 213.88720703 203.77099609 213.82910156 C155.58097665 210.25947049 107.08916687 216.3833202 60.85009766 230.24584961 C58 231 58 231 55 231 C55 302.94 55 374.88 55 449 C36.52 449 18.04 449 -1 449 C-1.33 383.66 -1.66 318.32 -2 251 C-24.66632516 259.96898847 -24.66632516 259.96898847 -46.921875 269.671875 C-50 271 -50 271 -52 271 C-52.34144043 270.31188232 -52.68288086 269.62376465 -53.03466797 268.91479492 C-62.30551358 250.23950456 -62.30551358 250.23950456 -72.01513672 231.78979492 C-72.39686035 231.07799072 -72.77858398 230.36618652 -73.171875 229.6328125 C-73.6683252 228.71846436 -73.6683252 228.71846436 -74.17480469 227.78564453 C-75.05456387 225.88192894 -75.55498458 224.04538101 -76 222 C-58.39980296 214.24256718 -40.80779421 206.4913661 -22.8125 199.6875 C-21.65854736 199.25074951 -20.50459473 198.81399902 -19.31567383 198.36401367 C-12.90806139 195.97818538 -6.58050615 193.97415185 0 192 C0 128.64 0 65.28 0 0 Z " fill="#59A2C9" transform="translate(610,0)"/>
<path d="M0 0 C18.15 0 36.3 0 55 0 C69.04545455 16.20629371 69.04545455 16.20629371 74.7578125 23.2578125 C77.30253683 26.37000148 79.89618225 29.43726497 82.5 32.5 C86.62113948 37.34948722 90.66991612 42.25161123 94.6875 47.1875 C97.26146392 50.31799666 99.87569086 53.41172461 102.5 56.5 C106.62101634 61.34959381 110.66991354 66.25160806 114.6875 71.1875 C117.26146392 74.31799666 119.87569086 77.41172461 122.5 80.5 C126.62101634 85.34959381 130.66991354 90.25160806 134.6875 95.1875 C137.26146392 98.31799666 139.87569086 101.41172461 142.5 104.5 C145.87278574 108.46907935 149.21176517 112.46016863 152.5 116.5 C157.58175677 122.73916756 162.78894106 128.86891962 168 135 C173.9600827 142.01234558 179.87758795 149.04960805 185.6875 156.1875 C188.26146392 159.31799666 190.87569086 162.41172461 193.5 165.5 C197.62101634 170.34959381 201.66991354 175.25160806 205.6875 180.1875 C208.26146392 183.31799666 210.87569086 186.41172461 213.5 189.5 C217.61088023 194.33766569 221.6514695 199.22617353 225.65625 204.15234375 C228.87527199 208.06345547 232.15918943 211.91858408 235.45898438 215.76171875 C238.8922923 219.7845846 238.8922923 219.7845846 240 222 C245.7628969 215.7799213 251.32280121 209.48129374 256.65234375 202.8828125 C259.22815236 199.71983953 261.85705222 196.60682328 264.5 193.5 C268.62011989 188.65204681 272.66796562 183.75153421 276.68359375 178.81640625 C279.27787266 175.66214808 281.91606265 172.5479702 284.5625 169.4375 C287.76739191 165.66911061 290.92687694 161.87753972 294 158 C297.52883403 153.54746299 301.18229329 149.21314021 304.86328125 144.88671875 C307.78004513 141.45428391 310.65693426 137.99407185 313.5 134.5 C317.24787798 129.8954642 321.06983444 125.35980809 324.9140625 120.8359375 C327.81244823 117.4194046 330.671551 113.97495162 333.5 110.5 C337.24787798 105.8954642 341.06983444 101.35980809 344.9140625 96.8359375 C348.56280785 92.53490247 352.13644727 88.17653903 355.6953125 83.80078125 C358.22033075 80.73224213 360.79484769 77.70960188 363.375 74.6875 C367.15792492 70.25148397 370.80532737 65.73399357 374.375 61.125 C378.83051671 55.37972845 383.51143405 49.86904559 388.29980469 44.39941406 C392.21631957 39.92239615 396.01327067 35.36457063 399.7578125 30.7421875 C402.30253886 27.62999602 404.89627171 24.56281379 407.5 21.5 C413.48365296 14.4549336 419.45265667 7.39645777 425 0 C443.15 0 461.3 0 480 0 C480 148.17 480 296.34 480 449 C461.85 449 443.7 449 425 449 C424.67 329.87 424.34 210.74 424 88 C414.04277793 99.47155773 414.04277793 99.47155773 404.3671875 111.1328125 C400.9636647 115.2552312 397.45023013 119.27901286 393.93969727 123.31030273 C389.95283667 127.89116089 386.0118092 132.50750287 382.09863281 137.15136719 C378.71518052 141.16384184 375.29899816 145.14710388 371.875 149.125 C368.38176144 153.18620876 364.93551293 157.27518971 361.5625 161.4375 C357.46084729 166.48854068 353.21408989 171.40128396 348.94213867 176.30786133 C344.01999483 181.96399021 339.16935245 187.67759591 334.33837891 193.41162109 C332.08232573 196.08908953 329.82293394 198.76372957 327.5625 201.4375 C327.11261719 201.96988281 326.66273438 202.50226563 326.19921875 203.05078125 C322.77850105 207.09344762 319.32894463 211.11071961 315.875 215.125 C312.38184894 219.18628745 308.93551604 223.27518587 305.5625 227.4375 C301.46084729 232.48854068 297.21408989 237.40128396 292.94213867 242.30786133 C288.01999483 247.96399021 283.16935245 253.67759591 278.33837891 259.41162109 C262.41363847 278.31099381 262.41363847 278.31099381 255.41503906 286.32446289 C254.42719629 287.49416009 253.47841705 288.69747999 252.56152344 289.92358398 C250.00552725 293.23815303 248.61017781 294.79176471 244.5546875 296.17578125 C235.16595803 296.52461939 235.16595803 296.52461939 231.34765625 293.83691406 C227.93598734 290.6053778 225.23203592 286.82853674 222.49902344 283.02294922 C220.02374389 279.68253125 217.25483245 276.61014995 214.5 273.5 C213.40597607 272.24225455 212.313523 270.98314097 211.22265625 269.72265625 C210.68656738 269.10406738 210.15047852 268.48547852 209.59814453 267.84814453 C204.54891042 262.00905161 199.53850734 256.13643333 194.52050781 250.27050781 C188.32331645 243.02751488 182.10434021 235.80439135 175.85571289 228.60571289 C171.72433908 223.84338803 167.61804318 219.06014018 163.51953125 214.26953125 C159.86285593 209.99861126 156.18560417 205.74596923 152.5 201.5 C145.80547173 193.78641465 139.15977295 186.03165538 132.52050781 178.27050781 C126.86694953 171.66288828 121.19991545 165.06769919 115.5 158.5 C108.80554642 150.7863492 102.15977351 143.03165603 95.52050781 135.27050781 C89.86694888 128.66288751 84.19982426 122.06777904 78.5 115.5 C74.13422436 110.46826971 69.7773061 105.42915537 65.4375 100.375 C64.94894531 99.80716797 64.46039063 99.23933594 63.95703125 98.65429688 C61.23678332 95.48194071 58.61242817 92.26553521 56 89 C55.67 207.8 55.34 326.6 55 449 C36.85 449 18.7 449 0 449 C0 300.83 0 152.66 0 0 Z " fill="#7099CC" transform="translate(0,0)"/>
<path d="M0 0 C224.1470234 0 224.1470234 0 249.375 5.75 C250.52726074 6.00604004 251.67952148 6.26208008 252.86669922 6.52587891 C304.01596761 18.28376117 348.55914324 47.14297954 377.07495117 91.53491211 C381.5993849 98.76308025 385.43632672 106.25961319 389 114 C389.53238281 115.14855469 390.06476563 116.29710938 390.61328125 117.48046875 C418.52496798 180.15554826 418.77167708 259.79913114 395.078125 323.77734375 C385.16424233 349.34909929 370.93664143 371.27995971 352 391 C351.20082153 391.8353125 351.20082153 391.8353125 350.38549805 392.6875 C313.42131226 430.59627391 259.0578971 444.74517524 208 449 C139.36 449 70.72 449 0 449 C0 300.83 0 152.66 0 0 Z M55 51 C55 165.51 55 280.02 55 398 C170.62929921 405.3682945 170.62929921 405.3682945 281 376 C282.05960938 375.44570313 283.11921875 374.89140625 284.2109375 374.3203125 C292.357771 369.85131459 299.18378353 364.25078739 306 358 C306.52126465 357.52401367 307.0425293 357.04802734 307.57958984 356.55761719 C338.15425532 328.2743738 351.81745211 285.75605048 354 245 C354.81571287 223.38417536 355.29789583 201.28580712 351 180 C350.82307617 179.1116748 350.64615234 178.22334961 350.46386719 177.30810547 C343.05934016 141.3021541 326.61547577 106.44826892 296.4375 84.0625 C295.74277588 83.54598877 295.04805176 83.02947754 294.33227539 82.49731445 C287.83963601 77.75181218 281.14493047 73.70955758 274 70 C272.31777344 69.11054687 272.31777344 69.11054687 270.6015625 68.203125 C207.65221809 36.79793331 112.79184318 51 55 51 Z " fill="#33ABC6" transform="translate(1485,0)"/>
<path d="M0 0 C18 0 18 0 22.875 4.625 C24.26188775 6.74226058 25.63583586 8.86802763 27 11 C28.98893187 13.48191498 31.08551969 15.8636379 33.1875 18.25 C34.16147874 19.37906885 35.13416762 20.50925186 36.10546875 21.640625 C36.57388184 22.18396484 37.04229492 22.72730469 37.52490234 23.28710938 C40.02201198 26.18676532 42.51084373 29.09351658 45 32 C52.51850476 24.72402765 59.2874438 16.77034729 65.859375 8.640625 C68.21231282 5.73809587 70.60798873 2.87041353 73 0 C78.94 0 84.88 0 91 0 C91 27.06 91 54.12 91 82 C84.07 82 77.14 82 70 82 C69.67 66.49 69.34 50.98 69 35 C61.9203367 42.82285307 61.9203367 42.82285307 55.1875 50.875 C49.53481065 57.93828761 49.53481065 57.93828761 47 60 C43.79156208 59.62728229 42.22626151 58.57710408 40.08203125 56.2265625 C39.54900391 55.64777344 39.01597656 55.06898438 38.46679688 54.47265625 C37.92087891 53.86292969 37.37496094 53.25320313 36.8125 52.625 C36.28591797 52.05394531 35.75933594 51.48289062 35.21679688 50.89453125 C30.23862998 45.43460627 25.69410559 39.73724017 21 34 C20.67 49.84 20.34 65.68 20 82 C13.4 82 6.8 82 0 82 C0 54.94 0 27.88 0 0 Z " fill="#FFFFFF" transform="translate(0,577)"/>
<path d="M0 0 C9.59822945 6.16926556 15.64955851 14.36857904 18.30078125 25.4921875 C20.30166953 38.26256273 19.4450649 50.45924313 12.30078125 61.4921875 C4.76950648 71.58764361 -3.87685766 76.72771528 -16.13671875 79.1796875 C-30.42028631 80.43263202 -43.27587069 78.58741428 -55.0234375 69.7421875 C-63.55365153 61.94313467 -68.0417194 51.06358813 -68.9140625 39.69140625 C-69.33913389 26.58220472 -65.89920162 15.48840377 -57.0390625 5.6484375 C-42.04775075 -8.2442202 -17.44127057 -9.74288052 0 0 Z M-43.19921875 22.4921875 C-47.31394417 28.74564025 -48.74507402 33.98599706 -47.69921875 41.4921875 C-45.43643902 48.37144194 -41.80689531 53.56680436 -35.69921875 57.4921875 C-29.91908912 60.38225231 -22.6157754 60.6140828 -16.421875 58.83984375 C-10.57672029 56.22579183 -6.39524461 51.90747246 -3.55859375 46.1953125 C-1.489351 39.68660349 -1.42675091 31.28265263 -4.26171875 24.9921875 C-7.25561298 20.0623122 -11.36550603 16.63311372 -16.51171875 14.1171875 C-26.99835186 12.06098493 -36.31932268 13.67523331 -43.19921875 22.4921875 Z " fill="#FFFFFF" transform="translate(1096.69921875,581.5078125)"/>
<path d="M0 0 C8.43422337 7.57750716 13.47348852 17.1972725 14.23828125 28.53125 C14.47204904 41.03167486 13.00707367 52.57259623 4 62 C-5.51377712 71.74713391 -15.73807941 75.85936259 -29.3125 76.3125 C-41.7831171 76.03027953 -53.08228581 72.19424834 -62.37109375 63.7890625 C-70.11148203 55.28762885 -73.57564208 44.88839974 -73.375 33.5625 C-73.36484863 32.72992676 -73.35469727 31.89735352 -73.34423828 31.03955078 C-73.02884525 18.53874017 -68.90114241 9.43217361 -59.8125 0.75 C-43.20348493 -13.32972343 -17.10702011 -12.79526709 0 0 Z M-47.453125 17.921875 C-51.32580889 23.12457154 -53.39670514 28.54043601 -53.0625 35.0625 C-52.04090344 41.38052923 -49.74802162 46.70516089 -44.7734375 50.859375 C-37.91637973 55.54987054 -32.29834815 56.94373371 -24 56 C-17.95814959 54.09967187 -13.22865343 51.27904662 -9.89453125 45.8125 C-6.42994453 38.79255135 -5.72313437 31.18510312 -8.1875 23.75 C-10.75290357 17.70811495 -15.51264283 14.34013045 -21 11 C-30.84280097 7.71906634 -40.53663353 10.37084302 -47.453125 17.921875 Z " fill="#FFFFFF" transform="translate(995,585)"/>
<path d="M0 0 C10.51875 -0.0928125 10.51875 -0.0928125 21.25 -0.1875 C23.43786133 -0.21481201 25.62572266 -0.24212402 27.87988281 -0.27026367 C42.55630093 -0.37697252 56.82229434 0.19201439 68.1875 10.5625 C77.05369193 20.03835149 79.27526672 32.2003446 78.87890625 44.87109375 C77.79340335 55.80445796 74.30060388 65.99558055 65.984375 73.5390625 C56.66505162 80.40013916 47.33281104 82.31338864 36.03515625 82.1953125 C35.11827026 82.19329834 34.20138428 82.19128418 33.25671387 82.18920898 C29.85859109 82.17880987 26.46054008 82.15088765 23.0625 82.125 C15.451875 82.08375 7.84125 82.0425 0 82 C0 54.94 0 27.88 0 0 Z M21 18 C21 33.51 21 49.02 21 65 C38.55572521 65.86937732 38.55572521 65.86937732 52.2734375 58.14453125 C56.43751093 52.9724129 57.53627689 47.55688612 57.4375 41.0625 C57.42920166 40.35883301 57.42090332 39.65516602 57.41235352 38.93017578 C57.16357294 31.293232 55.18475156 26.84833102 49.75 21.625 C41.51548604 15.20487047 30.71411124 16.38098146 21 18 Z " fill="#FFFFFF" transform="translate(1138,577)"/>
<path d="M0 0 C10.51875 -0.0928125 10.51875 -0.0928125 21.25 -0.1875 C23.43786133 -0.21481201 25.62572266 -0.24212402 27.87988281 -0.27026367 C43.06855684 -0.38146952 56.93490112 0.50411541 68.75 11.125 C78.22548482 21.1513851 78.44935242 33.61683559 78.27734375 46.54296875 C77.88569416 58.02161428 72.98877494 66.47647353 64.75 74.25 C58.53942112 79.32635289 50.21284671 82.13498077 42.23144531 82.11352539 C41.2777002 82.11340454 40.32395508 82.11328369 39.34130859 82.11315918 C37.84978271 82.10548523 37.84978271 82.10548523 36.328125 82.09765625 C35.40821777 82.09664917 34.48831055 82.09564209 33.54052734 82.09460449 C30.11033885 82.08937985 26.68016815 82.07541858 23.25 82.0625 C15.5775 82.041875 7.905 82.02125 0 82 C0 54.94 0 27.88 0 0 Z M21 18 C21 33.51 21 49.02 21 65 C38.55527877 65.97823371 38.55527877 65.97823371 52.3359375 57.96484375 C58.16747268 51.07925174 57.70728859 42.63902494 57 34 C55.99596419 27.86750678 52.96952412 24.24578834 48.1640625 20.41015625 C40.20155336 15.22158982 29.92622592 16.51229568 21 18 Z " fill="#FFFFFF" transform="translate(1282,577)"/>
<path d="M0 0 C0.12086218 6.43255401 -0.17648136 12.61773055 -1 19 C-1.85980469 18.72285156 -2.71960938 18.44570313 -3.60546875 18.16015625 C-16.88381864 14.09121806 -30.21487434 11.87099059 -43.375 17.75 C-48.84166125 20.76338499 -52.01443906 25.08667003 -54 31 C-55.11357944 39.28737542 -53.96404597 46.1853777 -49 53 C-43.35522382 58.69840826 -36.71705607 60.091514 -28.875 60.1875 C-24.98262517 60.16222484 -21.87827719 59.77565544 -18 59 C-17.67 55.37 -17.34 51.74 -17 48 C-22.94 48 -28.88 48 -35 48 C-35 42.39 -35 36.78 -35 31 C-22.13 31 -9.26 31 4 31 C4 44.53 4 58.06 4 72 C-14.60285053 78.97606895 -31.98611721 83.39243779 -51 76 C-52.02673828 75.60167969 -52.02673828 75.60167969 -53.07421875 75.1953125 C-62.6130264 70.96000694 -69.66819183 63.41635677 -74 54 C-75.93628749 48.49721735 -76.38655933 43.51752713 -76.375 37.75 C-76.37338867 36.91315674 -76.37177734 36.07631348 -76.37011719 35.21411133 C-76.13672216 23.39219576 -71.69115084 13.94861446 -63.16796875 5.734375 C-46.66953062 -7.4643755 -18.91013475 -9.45506737 0 0 Z " fill="#FFFFFF" transform="translate(595,581)"/>
<path d="M0 0 C7.21875 -0.061875 14.4375 -0.12375 21.875 -0.1875 C25.26241455 -0.22846802 25.26241455 -0.22846802 28.71826172 -0.27026367 C30.53873157 -0.27903797 32.35920737 -0.28667967 34.1796875 -0.29296875 C35.10015869 -0.30831665 36.02062988 -0.32366455 36.96899414 -0.33947754 C47.81148821 -0.34378581 56.12200544 2.46032422 64 10 C69.6873126 17.14559788 70.56834413 24.16516909 70.4453125 33.09375 C69.59402309 40.56120092 66.39899543 47.32835627 60.625 52.25 C59.75875 52.8275 58.8925 53.405 58 54 C59.28499149 57.5756285 60.78199689 60.28749503 63.15234375 63.25 C64.06983398 64.41015625 64.06983398 64.41015625 65.00585938 65.59375 C65.64330078 66.3878125 66.28074219 67.181875 66.9375 68 C68.199189 69.58128266 69.45838267 71.16456015 70.71484375 72.75 C71.27292725 73.44609375 71.83101074 74.1421875 72.40600586 74.859375 C74.11368619 77.15267278 75.56727854 79.52738699 77 82 C55.28513114 85.02479845 55.28513114 85.02479845 48.42675781 80.18359375 C44.15094985 75.6971268 40.97716231 70.55353551 38.09960938 65.0847168 C36.93754371 62.79533101 36.93754371 62.79533101 35 60 C32.37322453 59.61336226 30.00886319 59.39822401 27.375 59.3125 C24.94125 59.209375 22.5075 59.10625 20 59 C20 66.59 20 74.18 20 82 C13.4 82 6.8 82 0 82 C0 54.94 0 27.88 0 0 Z M20 18 C20 25.92 20 33.84 20 42 C23.01125 42.061875 26.0225 42.12375 29.125 42.1875 C30.06230957 42.21481201 30.99961914 42.24212402 31.96533203 42.27026367 C37.93179662 42.32935645 42.08443026 41.4128853 46.8125 37.5 C49.5698648 34.01701288 49.29206134 30.23488949 49 26 C47.31288538 22.28834784 45.44608231 20.14260054 42 18 C39.49173285 17.59010829 39.49173285 17.59010829 36.796875 17.70703125 C35.91354492 17.71452393 35.03021484 17.7220166 34.12011719 17.72973633 C32.45190918 17.77070435 32.45190918 17.77070435 30.75 17.8125 C27.2025 17.874375 23.655 17.93625 20 18 Z " fill="#FFFFFF" transform="translate(1596,577)"/>
<path d="M0 0 C6.93 0 13.86 0 21 0 C21 10.56 21 21.12 21 32 C32.22 32 43.44 32 55 32 C55 21.44 55 10.88 55 0 C61.93 0 68.86 0 76 0 C76 27.06 76 54.12 76 82 C69.07 82 62.14 82 55 82 C55 71.11 55 60.22 55 49 C43.78 49 32.56 49 21 49 C21 59.89 21 70.78 21 82 C14.07 82 7.14 82 0 82 C0 54.94 0 27.88 0 0 Z " fill="#FFFFFF" transform="translate(622,577)"/>
<path d="M0 0 C6.93 0 13.86 0 21 0 C21 10.56 21 21.12 21 32 C32.22 32 43.44 32 55 32 C55 21.44 55 10.88 55 0 C61.6 0 68.2 0 75 0 C75 27.06 75 54.12 75 82 C68.4 82 61.8 82 55 82 C55 71.11 55 60.22 55 49 C43.78 49 32.56 49 21 49 C21 59.89 21 70.78 21 82 C14.07 82 7.14 82 0 82 C0 54.94 0 27.88 0 0 Z " fill="#FFFFFF" transform="translate(374,577)"/>
<path d="M0 0 C20.46 0 40.92 0 62 0 C62 5.94 62 11.88 62 18 C48.14 18 34.28 18 20 18 C20 22.62 20 27.24 20 32 C32.21 32 44.42 32 57 32 C57 37.61 57 43.22 57 49 C44.79 49 32.58 49 20 49 C20 54.28 20 59.56 20 65 C33.86 65 47.72 65 62 65 C62 70.61 62 76.22 62 82 C41.54 82 21.08 82 0 82 C0 54.94 0 27.88 0 0 Z " fill="#FFFFFF" transform="translate(246,577)"/>
<path d="M0 0 C-0.1409349 2.43787385 -0.28754542 4.87517853 -0.4375 7.3125 C-0.47681641 8.00279297 -0.51613281 8.69308594 -0.55664062 9.40429688 C-0.74927415 12.47161535 -1.02322717 15.06968152 -2 18 C-4.65460449 17.49738187 -7.26075499 16.93162267 -9.875 16.24609375 C-18.07724553 14.12376272 -27.80613278 11.64819419 -35.85546875 15.29296875 C-36.56316406 15.85628906 -37.27085938 16.41960938 -38 17 C-38.41725678 20.62599422 -38.41725678 20.62599422 -38 24 C-37.41476562 24.14695312 -36.82953125 24.29390625 -36.2265625 24.4453125 C-3.27854893 33.05335208 -3.27854893 33.05335208 2.5625 42.5625 C5.21580748 48.98694357 5.11579491 56.25154614 3.15234375 62.84765625 C0.08094937 69.75048497 -4.32573261 73.78495538 -11.09375 76.9921875 C-26.01430567 82.66848585 -44.598036 80.11553986 -59 74 C-59.33 73.67 -59.66 73.34 -60 73 C-59.96165627 70.3365854 -59.85505396 67.71811549 -59.6875 65.0625 C-59.65205078 64.32064453 -59.61660156 63.57878906 -59.58007812 62.81445312 C-59.2415616 57.2415616 -59.2415616 57.2415616 -57 55 C-56.11957031 55.27714844 -55.23914062 55.55429687 -54.33203125 55.83984375 C-53.17058594 56.20207031 -52.00914063 56.56429687 -50.8125 56.9375 C-49.66394531 57.29714844 -48.51539063 57.65679688 -47.33203125 58.02734375 C-41.777636 59.64873228 -36.71906801 60.18220067 -30.9375 60.1875 C-30.23044922 60.19974609 -29.52339844 60.21199219 -28.79492188 60.22460938 C-25.07480536 60.23508858 -22.07198386 60.24254822 -19 58 C-17.91975342 55.59889783 -17.91975342 55.59889783 -18 53 C-20.21913392 50.08061621 -22.50025513 49.32671909 -25.97265625 48.38671875 C-26.95556641 48.10763672 -27.93847656 47.82855469 -28.95117188 47.54101562 C-30.9969746 46.97980044 -33.04382724 46.42239612 -35.09179688 45.86914062 C-44.99942345 43.04298854 -53.50183763 39.25615974 -59.0703125 30.2734375 C-61.3484801 24.70245623 -60.83409355 17.30997882 -59.3828125 11.55078125 C-56.49712887 5.05160882 -50.73462098 0.02757433 -44.3125 -2.875 C-30.0315958 -7.72511841 -13.69078632 -5.64315565 0 0 Z " fill="#FFFFFF" transform="translate(1487,581)"/>
<path d="M0 0 C0.91491211 -0.00056396 1.82982422 -0.00112793 2.77246094 -0.00170898 C20.78758263 0.28758263 20.78758263 0.28758263 25.875 5.375 C25.97480173 7.64402176 26.00467809 9.91628925 26 12.1875 C26.00386719 14.05341797 26.00386719 14.05341797 26.0078125 15.95703125 C25.90267173 18.66286002 25.68643252 20.81834355 24.875 23.375 C21.94327203 22.82530101 19.11865097 22.16354758 16.2421875 21.359375 C11.80383555 20.24928012 7.56279508 19.99022014 3 20 C2.21278564 20.00161133 1.42557129 20.00322266 0.61450195 20.00488281 C-7.02300516 20.16549012 -12.51432722 22.17719918 -19 26.125 C-23.41780647 30.80267744 -25.3628195 35.35743529 -25.625 41.8125 C-25.31677902 48.99106602 -23.20816654 54.76125283 -17.9375 59.75 C-9.94526818 65.82004948 -0.89222825 66.37622078 8.875 65.375 C13.00878951 64.32859034 16.90188779 62.9064318 20.875 61.375 C22.20211192 61.01770064 23.53358186 60.67414254 24.875 60.375 C26.86098493 66.33295479 27.44545059 72.12392565 27.875 78.375 C12.14165748 85.02360603 -4.70774506 88.6042891 -21.171875 82.1875 C-32.79317846 76.76029229 -41.4258773 69.1418786 -45.9375 57 C-48.92365009 45.89632697 -48.64937851 32.56593427 -43.125 22.375 C-36.41696064 11.22139609 -26.72141997 4.95392599 -14.4140625 1.26171875 C-9.6192926 0.12293264 -4.91192791 -0.00765519 0 0 Z " fill="#FFFFFF" transform="translate(1784.125,575.625)"/>
<path d="M0 0 C19.8 0 39.6 0 60 0 C60 5.94 60 11.88 60 18 C46.8 18 33.6 18 20 18 C20 22.62 20 27.24 20 32 C30.23 32 40.46 32 51 32 C51 37.94 51 43.88 51 50 C40.77 50 30.54 50 20 50 C20 60.56 20 71.12 20 82 C13.4 82 6.8 82 0 82 C0 54.94 0 27.88 0 0 Z " fill="#FFFFFF" transform="translate(767,577)"/>
<path d="M0 0 C22.77 0 45.54 0 69 0 C69 5.94 69 11.88 69 18 C61.08 18 53.16 18 45 18 C45 39.12 45 60.24 45 82 C38.07 82 31.14 82 24 82 C24 60.88 24 39.76 24 18 C16.08 18 8.16 18 0 18 C0 12.06 0 6.12 0 0 Z " fill="#FFFFFF" transform="translate(1507,577)"/>
<path d="M0 0 C22.44 0 44.88 0 68 0 C68 5.94 68 11.88 68 18 C60.08 18 52.16 18 44 18 C44 39.12 44 60.24 44 82 C37.4 82 30.8 82 24 82 C24 60.88 24 39.76 24 18 C16.08 18 8.16 18 0 18 C0 12.06 0 6.12 0 0 Z " fill="#FFFFFF" transform="translate(1828,577)"/>
<path d="M0 0 C6.6 0 13.2 0 20 0 C20 21.45 20 42.9 20 65 C33.86 65 47.72 65 62 65 C62 70.61 62 76.22 62 82 C41.54 82 21.08 82 0 82 C0 54.94 0 27.88 0 0 Z " fill="#FFFFFF" transform="translate(848,577)"/>
<path d="M0 0 C6.6 0 13.2 0 20 0 C20 21.45 20 42.9 20 65 C33.53 65 47.06 65 61 65 C61 70.61 61 76.22 61 82 C40.87 82 20.74 82 0 82 C0 54.94 0 27.88 0 0 Z " fill="#FFFFFF" transform="translate(164,577)"/>
<path d="M0 0 C6.93 0 13.86 0 21 0 C21 27.06 21 54.12 21 82 C14.07 82 7.14 82 0 82 C0 54.94 0 27.88 0 0 Z " fill="#FFFFFF" transform="translate(1693,577)"/>
<path d="M0 0 C6.93 0 13.86 0 21 0 C21 27.06 21 54.12 21 82 C14.07 82 7.14 82 0 82 C0 54.94 0 27.88 0 0 Z " fill="#FFFFFF" transform="translate(1383,577)"/>
<path d="M0 0 C6.93 0 13.86 0 21 0 C21 27.06 21 54.12 21 82 C14.07 82 7.14 82 0 82 C0 54.94 0 27.88 0 0 Z " fill="#FFFFFF" transform="translate(475,577)"/>
<path d="M0 0 C6.93 0 13.86 0 21 0 C21 27.06 21 54.12 21 82 C14.07 82 7.14 82 0 82 C0 54.94 0 27.88 0 0 Z " fill="#FFFFFF" transform="translate(117,577)"/>
</svg>
